<?xml version="1.0" encoding="UTF-8"?>
<svg width="1200pt" height="1200pt" version="1.1" viewBox="0 0 1200 1200" xmlns="http://www.w3.org/2000/svg">
 <g>
  <path d="m1115.8 644.41c-32.824-23.375-76.34-22.574-108.28 2l-223.82 172.2c-5.9727-45.168-44.707-80.152-91.484-80.152h-369.23v-46.152c0-12.742-10.332-23.078-23.078-23.078h-115.38c-10.48 0-19.648 7.0664-22.316 17.203l-115.38 438.46c-1.8203 6.9219-0.32812 14.293 4.0391 19.961 4.3711 5.668 11.121 8.9883 18.277 8.9883h230.77c12.746 0 23.078-10.332 23.078-23.078v-44.832l389.86 21.719c0.42969 0.023437 0.85547 0.035156 1.2852 0.035156 5.2266 0 10.316-1.7773 14.418-5.0547l391.3-313.04c22.484-17.988 34.922-44.812 34.117-73.598-0.8125-28.785-14.723-54.875-38.18-71.582zm-838.96 463.28h-177.76l103.24-392.31h74.52zm814.19-354.14-384.41 307.53-383.62-21.371v-255.09h369.23c25.449 0 46.152 20.703 46.152 46.152s-20.703 46.152-46.152 46.152h-253.85c-12.746 0-23.078 10.332-23.078 23.078 0 12.742 10.332 23.078 23.078 23.078h253.85c20.277 0 39.039-6.5898 54.285-17.715 0.44531-0.29688 0.89453-0.58594 1.3242-0.91797l287.84-221.45c15.742-12.113 37.184-12.504 53.359-0.98438 11.559 8.2305 18.414 21.094 18.812 35.273 0.39844 14.188-5.7344 27.402-16.812 36.27z"/>
  <path d="m507.57 415.38h69.23v69.23c0 12.746 10.332 23.078 23.078 23.078h92.309c12.742 0 23.078-10.332 23.078-23.078v-69.23h69.23c12.742 0 23.078-10.332 23.078-23.078v-92.309c0-12.746-10.332-23.078-23.078-23.078h-69.23l-0.003907-69.227c0-12.746-10.332-23.078-23.078-23.078h-92.309c-12.746 0-23.078 10.332-23.078 23.078v69.23h-69.23c-12.746 0-23.078 10.332-23.078 23.078v92.309c0.003906 12.746 10.336 23.074 23.082 23.074zm23.074-92.305h69.23c12.742 0 23.078-10.332 23.078-23.078v-69.23h46.152v69.23c0 12.746 10.332 23.078 23.078 23.078h69.23v46.152h-69.23c-12.742 0-23.078 10.332-23.078 23.078v69.23h-46.152v-69.23c0-12.746-10.332-23.078-23.078-23.078h-69.23z"/>
  <path d="m230.64 530.77c12.746 0 23.078-10.332 23.078-23.078v-138.46h93.188c11.824 154.68 141.46 276.92 299.12 276.92s287.3-122.24 299.12-276.92h93.188v138.46c0 12.746 10.332 23.078 23.078 23.078 12.742 0 23.078-10.332 23.078-23.078v-161.54c0-12.746-10.332-23.078-23.078-23.078h-116.27c-11.824-154.68-141.46-276.92-299.12-276.92s-287.3 122.24-299.12 276.92l-116.27 0.003906c-12.746 0-23.078 10.332-23.078 23.078v161.54c0.003906 12.742 10.336 23.074 23.078 23.074zm415.39-438.46c139.97 0 253.85 113.88 253.85 253.85s-113.88 253.85-253.85 253.85-253.85-113.88-253.85-253.85 113.88-253.85 253.85-253.85z"/>
  <path d="m228.87 1029.6c-0.57813-1.4062-1.293-2.7461-2.125-3.9883-0.83203-1.2734-1.8008-2.4492-2.8633-3.5117s-2.2383-2.0312-3.5078-2.8633c-1.2461-0.85547-2.5859-1.5469-3.9688-2.125-1.4062-0.57812-2.8633-1.0391-4.3398-1.3398-2.9766-0.57812-6.0234-0.57812-9 0-1.4766 0.30078-2.9297 0.76172-4.3164 1.3398-1.4062 0.57812-2.7461 1.2695-3.9922 2.125-1.2695 0.83203-2.4453 1.8008-3.5078 2.8633s-2.0312 2.2383-2.8633 3.5117c-0.83203 1.2461-1.5469 2.582-2.125 3.9883-0.57812 1.3867-1.0156 2.8398-1.3164 4.3164-0.30078 1.4766-0.46094 3-0.46094 4.5 0 1.4961 0.16016 3.0234 0.46094 4.5 0.30078 1.4766 0.73828 2.9297 1.3164 4.3125 0.57813 1.4062 1.293 2.7461 2.125 3.9961 0.83203 1.2695 1.8008 2.4453 2.8633 3.5039 1.0625 1.0625 2.2383 2.0312 3.5078 2.8633 1.2461 0.83203 2.5859 1.5469 3.9922 2.125 1.3828 0.57812 2.8398 1.0391 4.3164 1.3164 1.4766 0.30078 3 0.46094 4.5 0.46094s3.0234-0.16016 4.5-0.46094c1.4766-0.27734 2.9297-0.73828 4.3398-1.3164 1.3828-0.57812 2.7227-1.293 3.9688-2.125 1.2695-0.82812 2.4453-1.7969 3.5078-2.8633 1.0625-1.0625 2.0312-2.2383 2.8633-3.5039 0.83203-1.2461 1.5469-2.5859 2.125-3.9961 0.57812-1.3828 1.0391-2.8359 1.3164-4.3125 0.30078-1.4805 0.46094-3.0039 0.46094-4.5 0-1.5-0.16016-3.0234-0.46094-4.5-0.28125-1.4766-0.74219-2.9297-1.3164-4.3164z"/>
 </g>
</svg>
