<?xml version="1.0" encoding="UTF-8"?>
<svg width="1200pt" height="1200pt" version="1.1" viewBox="0 0 1200 1200" xmlns="http://www.w3.org/2000/svg">
 <path d="m600 505.98c-51.938 0-94.023 42.086-94.023 94.023s42.086 94.023 94.023 94.023 94.023-42.086 94.023-94.023-42.086-94.023-94.023-94.023zm422.71 355.4c89.102 0 161.32 72.238 161.32 161.32 0 89.102-72.238 161.34-161.32 161.34-89.086 0.003906-161.34-72.223-161.34-161.32 0-37.762 12.977-72.488 34.711-99.977l-38.461-38.461 2.1367 17.363c1.2617 10.324-6.0859 19.711-16.414 20.977-10.324 1.2617-19.711-6.0859-20.977-16.414l-8.8125-71.664c-1.5117-12.363 9.1758-22.648 21.336-20.926l71.301 8.7734c10.324 1.2617 17.676 10.648 16.414 20.977-1.2617 10.324-10.648 17.676-20.977 16.414l-17.363-2.1367 38.449 38.449c27.492-21.734 62.23-34.711 99.992-34.711zm93.953 241.74c18.512-21.613 29.699-49.699 29.699-80.398 0-68.289-55.363-123.65-123.65-123.65-68.289 0-123.65 55.363-123.65 123.65 0 30.699 11.188 58.789 29.699 80.398 13.562-38.812 50.5-66.664 93.949-66.664 43.434 0 80.371 27.852 93.949 66.664zm-93.953-181.93c-27.789 0-50.312 22.523-50.312 50.312s22.523 50.312 50.312 50.312c27.789 0 50.312-22.523 50.312-50.312s-22.523-50.312-50.312-50.312zm-845.42-59.812c37.762 0 72.488 12.977 99.977 34.711l38.461-38.449-17.363 2.1367c-10.324 1.2617-19.711-6.0859-20.977-16.414-1.2617-10.324 6.0859-19.711 16.414-20.977l71.301-8.7734c12.164-1.7109 22.852 8.5742 21.336 20.926l-8.8125 71.664c-1.2617 10.324-10.648 17.676-20.977 16.414-10.324-1.2617-17.676-10.648-16.414-20.977l2.1367-17.363-38.461 38.461c21.738 27.488 34.711 62.211 34.711 99.977 0 89.102-72.238 161.34-161.32 161.34-89.086 0.003906-161.34-72.234-161.34-161.34 0-89.098 72.227-161.34 161.33-161.34zm93.949 241.74c18.512-21.613 29.699-49.699 29.699-80.398 0-68.289-55.363-123.65-123.65-123.65-68.289 0-123.65 55.363-123.65 123.65 0 30.699 11.188 58.789 29.699 80.398 13.562-38.812 50.5-66.664 93.949-66.664 43.449 0 80.375 27.852 93.949 66.664zm-93.949-181.93c-27.789 0-50.312 22.523-50.312 50.312s22.523 50.312 50.312 50.312c27.789 0 50.312-22.523 50.312-50.312s-22.527-50.312-50.312-50.312zm199.41-191.41c5.1992 8.9883 2.1367 20.488-6.8516 25.688-8.9883 5.1992-20.488 2.1367-25.688-6.8516-72.938-125.3-44.312-286.29 69.648-378.54 97.523-78.949 233.48-87.438 339.4-23.238-0.625-8.6992 4.8984-16.949 13.625-19.438 10-2.8516 20.414 2.9492 23.25 12.949l14.023 49.148c3.5117 12.363-6.1367 24.414-18.773 23.961l-49.75 1.7891c-10.363 0.36328-19.062-7.7383-19.426-18.102-0.33594-9.6016 6.5859-17.762 15.836-19.211-92.164-54.914-210.06-47.086-294.5 21.262-99.504 80.598-124.49 221.16-60.793 330.58zm646.01-713.81c89.102 0 161.32 72.238 161.32 161.32 0 89.102-72.238 161.34-161.32 161.34-37.762 0-72.488-12.977-99.977-34.711l-38.461 38.461 17.363-2.1367c10.324-1.2617 19.711 6.0859 20.977 16.414 1.2617 10.324-6.0859 19.711-16.414 20.977l-71.301 8.7734c-12.164 1.7109-22.852-8.5625-21.336-20.926l8.8125-71.664c1.2617-10.324 10.648-17.676 20.977-16.414 10.324 1.2617 17.676 10.648 16.414 20.977l-2.1367 17.363 38.461-38.461c-21.738-27.488-34.711-62.227-34.711-99.977-0.003906-89.109 72.234-161.34 161.33-161.34zm-682.47 282.4 2.1367 17.363-38.461-38.461c21.738-27.488 34.711-62.211 34.711-99.977 0-89.102-72.238-161.32-161.32-161.32-89.09-0.003906-161.34 72.223-161.34 161.32 0 89.102 72.238 161.34 161.32 161.34 37.762 0 72.488-12.977 99.977-34.711l38.461 38.461-17.363-2.1367c-10.324-1.2617-19.711 6.0859-20.977 16.414-1.2617 10.324 6.0859 19.711 16.414 20.977l71.301 8.7734c12.164 1.7109 22.852-8.5625 21.336-20.926l-8.8125-71.664c-1.2617-10.324-10.648-17.676-20.977-16.414-10.332 1.25-17.668 10.641-16.406 20.965zm106.54 554.79c0.625 8.7109-4.8984 16.961-13.625 19.438-10 2.8516-20.414-2.9492-23.25-12.949l-14.023-49.148c-3.5117-12.363 6.1367-24.414 18.773-23.961l49.75-1.7891c10.363-0.36328 19.062 7.7383 19.426 18.102 0.33594 9.6016-6.6016 17.773-15.863 19.211 92.262 55.074 210.3 46.914 294.52-21.262 99.574-80.602 124.51-221.18 60.812-330.56-5.1992-8.9883-2.1367-20.488 6.8516-25.688 8.9883-5.1992 20.488-2.1367 25.688 6.8516 72.926 125.24 44.336 286.27-69.648 378.54-97.426 78.859-233.25 87.484-339.41 23.219zm669.89-595.46c18.512-21.613 29.699-49.699 29.699-80.398 0-68.289-55.363-123.65-123.65-123.65-68.289 0-123.65 55.363-123.65 123.65 0 30.699 11.188 58.789 29.699 80.398 13.562-38.812 50.5-66.664 93.949-66.664 43.434 0.015624 80.371 27.852 93.949 66.664zm-93.953-181.91c-27.789 0-50.312 22.523-50.312 50.312 0 27.789 22.523 50.312 50.312 50.312 27.789 0 50.312-22.523 50.312-50.312 0-27.785-22.523-50.312-50.312-50.312zm-751.47 181.91c-13.574-38.812-50.5-66.664-93.949-66.664-43.449 0-80.375 27.852-93.949 66.664-18.512-21.613-29.699-49.699-29.699-80.398 0-68.289 55.363-123.65 123.65-123.65 68.289 0 123.65 55.363 123.65 123.65 0 30.699-11.188 58.785-29.699 80.398zm-93.949-181.91c27.789 0 50.312 22.523 50.312 50.312 0 27.789-22.523 50.312-50.312 50.312-27.789 0-50.312-22.523-50.312-50.312 0-27.785 22.523-50.312 50.312-50.312zm462.38 358.04c17.586 4.1875 34.387 11.164 49.773 20.637l32.352-14.363 38.125 38.125-14.363 32.336c9.4883 15.398 16.449 32.199 20.637 49.789l33 12.699v53.914l-33.012 12.699c-4.1875 17.586-11.164 34.387-20.637 49.773l14.363 32.352-38.125 38.125-32.336-14.363c-15.398 9.4883-32.199 16.449-49.789 20.637l-12.699 33h-53.914l-12.699-33.012c-17.586-4.1875-34.387-11.164-49.773-20.637l-32.352 14.363-38.125-38.125 14.363-32.336c-9.4883-15.398-16.449-32.199-20.637-49.789l-33-12.699v-53.914l33-12.699c4.1875-17.586 11.164-34.387 20.637-49.789l-14.363-32.336 38.125-38.125 32.352 14.363c15.398-9.4766 32.188-16.449 49.773-20.637l12.699-33.012h53.914z" fill-rule="evenodd"/>
</svg>
