<?xml version="1.0" encoding="UTF-8"?>
<svg width="1200pt" height="1200pt" version="1.1" viewBox="0 0 1200 1200" xmlns="http://www.w3.org/2000/svg">
 <path d="m1111.1 529.45c-32.727 0-60 22.547-67.816 52.91h-91.637c-4.1836-84-37.637-160-90.547-218.55l64.727-64.727c10.91 6.3633 22.91 10 35.82 10 18.727 0 36.547-7.2734 49.816-20.547 13.453-13.453 20.727-31.09 20.727-49.816 0-18.727-7.2734-36.547-20.547-49.816-27.453-27.453-72.363-27.453-100 0-23.09 23.09-26.363 58.363-10.547 85.453l-64.727 64.727c-58.547-52.91-134.55-86.547-218.55-90.727l0.003906-91.637c30.363-7.8164 52.727-35.273 52.727-67.816 0-38.91-31.637-70.727-70.363-70.727-38.91 0-70.727 31.637-70.727 70.727 0 32.727 22.547 60 52.91 67.816v91.453c-84 4.1836-160.18 37.637-218.73 90.727l-64.727-64.727c6.3633-10.727 10-22.727 10-35.453 0-18.91-7.2734-36.547-20.547-50-27.453-27.453-72.363-27.453-100 0-27.453 27.453-27.273 72.184 0.18359 99.637 13.273 13.273 30.91 20.547 49.816 20.547 12.727 0 24.91-3.6367 35.637-10l64.727 64.727c-52.91 58.547-86.363 134.73-90.547 218.55h-91.453c-7.8164-30.363-35.273-52.91-67.816-52.91-39.094 0.17969-70.727 32-70.727 70.91 0 38.727 31.637 70.363 70.727 70.363 32.727 0 60-22.547 67.816-52.727h91.453c4.1836 84 37.816 160 90.727 218.55l-64.91 64.91c-27.09-15.816-62.363-12.547-85.453 10.547-27.637 27.637-27.637 72.363 0 100 13.273 13.273 30.91 20.547 49.637 20.547h0.18359c18.727 0 36.547-7.4531 49.816-20.727 13.273-13.273 20.547-30.91 20.547-49.816 0-12.727-3.6367-24.91-10-35.637l64.727-64.727c58.547 52.91 134.73 86.363 218.55 90.547v91.637c-30.363 7.8164-52.91 35.273-52.91 67.816 0 38.91 31.637 70.727 70.727 70.727 38.727 0 70.363-31.637 70.363-70.727 0-32.727-22.547-60-52.727-67.816v-91.637c83.816-4.1836 160-37.637 218.36-90.547l64.91 64.91c-15.816 26.91-12.547 62.184 10.727 85.273 13.453 13.453 31.09 20.727 49.816 20.727h0.18359c18.727 0 36.363-7.2734 49.637-20.547 13.273-13.273 20.727-31.09 20.727-49.816 0-18.91-7.2734-36.727-20.727-50-23.09-23.09-58.363-26.547-85.453-10.547l-64.91-64.91c52.91-58.547 86.547-134.55 90.727-218.55h91.637c7.8164 30.363 35.273 52.727 67.816 52.727 38.91 0 70.727-31.637 70.727-70.363 0.18359-39.098-31.449-70.918-70.543-70.918zm-174.54-315.82c6.9102-6.9102 16-10.363 25.09-10.363 9.0898 0 18.184 3.4531 25.09 10.363 6.7266 6.7266 10.363 15.453 10.363 24.91 0 9.4531-3.8164 18.363-10.547 25.09-13.273 13.273-36.363 13.273-49.637 0-13.996-14-13.996-36.363-0.35938-50zm-673.27 49.816c-13.273 13.273-36.363 13.273-49.637 0-13.816-13.816-13.816-36.184-0.18359-49.816 6.9102-6.9102 16-10.363 25.09-10.363 9.0898 0 18.184 3.4531 25.09 10.363 6.5469 6.5469 10.184 15.453 10.184 24.91-0.17969 9.4531-3.8164 18.18-10.543 24.906zm-174.36 371.82c-19.453 0-35.453-15.816-35.453-35.09 0-19.453 15.816-35.453 35.453-35.453 19.453 0 35.09 15.816 35.09 35.453 0 19.27-15.816 35.09-35.09 35.09zm174.54 351.09c-6.7266 6.7266-15.637 10.363-25.09 10.547-9.2734 0-18.184-3.6367-24.727-10.363-13.816-13.816-13.816-36.184 0-50 6.7266-6.7266 15.816-10.184 24.727-10.184 9.0898 0 18.184 3.4531 25.09 10.363 6.7266 6.7266 10.363 15.453 10.363 24.91 0 9.2734-3.6328 18.18-10.363 24.727zm673.09-49.637c6.9102-6.9102 16-10.363 25.09-10.363 8.9102 0 18 3.4531 24.727 10.184 6.7266 6.7266 10.363 15.637 10.363 25.09s-3.6367 18.363-10.363 24.91c-6.5469 6.5469-15.453 10.363-24.727 10.363-9.4531 0-18.363-3.8164-25.09-10.547-13.637-13.637-13.637-36 0-49.637zm-371.82-847.82c0-19.453 15.816-35.453 35.453-35.453 19.453 0 35.09 15.816 35.09 35.453 0 19.453-15.816 35.09-35.09 35.09-19.633 0-35.453-15.816-35.453-35.09zm70.547 1022.2c0 19.453-15.816 35.453-35.09 35.453-19.453 0-35.453-15.816-35.453-35.453 0-19.453 15.816-35.09 35.453-35.09 19.27 0 35.09 15.816 35.09 35.09zm-35.273-193.82c-84.547 0-161.27-33.453-218.18-87.637v-61.273c0-63.09 51.273-114.36 114.36-114.36h207.82c63.09 0 114.36 51.273 114.36 114.36v61.273c-57.086 54.18-133.81 87.637-218.36 87.637zm-108.55-408.55c0-60.184 48.91-109.09 109.09-109.09 60.184 0 109.09 48.91 109.09 109.09 0 60.184-48.91 109.09-109.09 109.09-60.18 0-109.09-48.906-109.09-109.09zm363.09 279.82v-20.184c0-83.09-67.637-150.73-150.73-150.73h-7.4531c30.363-26.727 49.637-65.637 49.637-109.09 0-80.184-65.273-145.45-145.45-145.45-80.184 0-145.45 65.273-145.45 145.45 0 43.453 19.273 82.363 49.637 109.09h-8.7266c-83.09 0-150.73 67.637-150.73 150.73v20.184c-39.273-52.727-62.727-118-62.727-188.73 0-175.09 142.36-317.45 317.45-317.45 175.08-0.003907 317.45 142.54 317.45 317.63 0 70.727-23.637 135.82-62.906 188.55zm256.54-153.27c-19.453 0-35.09-15.816-35.09-35.09 0-19.453 15.816-35.453 35.09-35.453 19.453 0 35.453 15.816 35.453 35.453 0.003906 19.27-15.816 35.09-35.453 35.09z"/>
</svg>
