<?xml version="1.0" encoding="UTF-8"?>
<svg width="1200pt" height="1200pt" version="1.1" viewBox="0 0 1200 1200" xmlns="http://www.w3.org/2000/svg">
 <g>
  <path d="m556.2 864.82c-8.0078 0-16.426-3.3359-22.742-9.3008-6.7695-6.375-10.707-15.32-10.801-24.562l-0.48828-37.555c-0.16797-0.074219-0.33594-0.14844-0.48828-0.22656l-26.586 26.758c-13.574 13.633-35.102 13.875-48.977 0.60156l-66.094-63.281c-6.8438-6.543-10.668-15.207-10.762-24.395-0.11328-9.207 3.5078-17.961 10.164-24.676l26.211-26.383-38.68 0.46875c-8.5508 0.1875-17.418-2.9453-24.094-9.2266-6.7695-6.3555-10.727-15.32-10.836-24.582l-1.1445-90.395c-0.42969-8.3047 2.7734-16.969 9.0938-23.68 6.4297-6.8633 15.543-10.855 24.977-10.969l38.023-0.91797c0.019532-0.039062 0.039063-0.074218 0.039063-0.11328l-26.926-25.781c-6.6758-6.3945-10.48-15.375-10.352-24.637 0.11328-9.2617 4.1445-18.168 11.043-24.449l63.805-64.219c13.555-13.633 35.102-13.914 48.977-0.58203l27.227 26.062c0.16797-0.054687 0.35547-0.13281 0.50781-0.1875l-0.46875-37.574c-0.42969-8.3047 2.7734-16.969 9.0742-23.68 6.4492-6.8633 15.562-10.855 25.012-10.969l92.117-1.125c8.2891-0.39453 17.418 2.9453 24.094 9.2422 6.7695 6.3555 10.727 15.32 10.836 24.562l0.46875 37.613c0.16797 0.054687 0.33594 0.13281 0.50781 0.20703l26.586-26.758c13.555-13.633 35.102-13.895 48.977-0.60156l65.793 62.98c6.8242 6.543 10.648 15.188 10.762 24.355 0.11328 9.207-3.5078 17.98-10.164 24.676l-26.23 26.398 38.68-0.46875c8.7578-0.41406 17.438 2.9609 24.113 9.2422 6.7695 6.3555 10.727 15.32 10.836 24.562l0.82422 90.148c0.42969 8.25-2.7734 16.914-9.0742 23.625-6.4492 6.8633-15.562 10.855-24.992 10.969l-38.68 0.46875 26.906 25.742 0.019531 0.019531c12.898 12.375 14.176 32.363 3.0547 47.531-0.5625 0.75-1.1797 1.4609-1.8359 2.1172l-64.48 64.875c-13.539 13.648-35.043 13.93-48.977 0.60156l-27.227-26.082c-0.1875 0.054687-0.35547 0.13281-0.50781 0.1875l0.46875 37.594c0.42969 8.3047-2.7734 16.969-9.0742 23.68-6.4492 6.8633-15.562 10.875-25.012 10.988l-92.117 1.125c-0.44922-0.046874-0.9375-0.027343-1.3867-0.027343zm3.957-34.332m86.176-0.67188v0.35547zm-89.684-2.5156h-0.1875 0.28125-0.09375zm-39.055-75.391c2.1562 0 4.3125 0.375 6.4297 1.1445 3.168 1.1641 6.0742 2.5703 8.8516 3.957 1.1055 0.54297 2.1562 1.1055 3.2422 1.5547 1.4609 0.63672 5.6992 2.4766 8.5703 3.0938 8.5508 1.8359 14.699 9.3555 14.812 18.094l0.61719 47.531 86.156-1.0703-0.60156-47.492c-0.11328-8.7734 5.8672-16.445 14.418-18.488 1.9141-0.44922 3.6758-1.293 5.5117-2.0625l3.8828-1.5938c1.6875-0.60156 4.0859-1.5391 8.1562-3.9922 7.2383-4.3672 16.539-3.375 22.668 2.4922l34.914 33.449 60.508-60.844-35.062-33.562c-5.418-5.1953-7.2383-13.125-4.5938-20.137 1.1992-3.1875 2.6797-6.1133 4.125-8.9062 0.42969-0.82422 0.86328-1.6328 1.2383-2.4375 0.52344-1.4805 1.1445-3 1.7812-4.5391 0.58203-1.4258 1.2734-2.8672 1.5938-4.3125 1.8945-8.4922 9.375-14.57 18.094-14.68l48.77-0.58203-0.76953-83.551-48.75 0.60156h-0.24219c-8.625 0-16.125-5.8672-18.207-14.27-0.44922-1.8008-1.2734-3.4883-2.0625-5.2305l-1.6484-3.8828c-0.91797-2.4922-2.2891-5.1172-3.9922-7.8203-4.6875-7.3867-3.6172-17.043 2.5508-23.25l33.582-33.77-61.688-59.062-34.07 34.293c-5.1172 5.1758-12.844 6.918-19.727 4.3867-3.168-1.1641-6.0742-2.5703-8.8516-3.957-0.88281-0.42969-1.7422-0.88281-2.6055-1.2734-1.5391-0.52344-3.1328-1.1445-4.7422-1.7812-1.4609-0.58203-2.9453-1.2734-4.4609-1.5938-8.5508-1.8359-14.719-9.3555-14.832-18.094l-0.60156-47.512-86.156 1.0703 0.60156 47.492c0.11328 8.7734-5.8672 16.445-14.418 18.488-1.9141 0.44922-3.6562 1.2734-5.4922 2.0625l-3.9375 1.6133c-1.6328 0.58203-4.0312 1.5195-8.1172 3.9766-7.1992 4.3867-16.539 3.375-22.668-2.4922l-34.93-33.449-60.469 60.844 33.77 32.344c5.418 5.1953 7.2383 13.125 4.5742 20.137-1.1797 3.1875-2.6641 6.0938-4.1055 8.8672-0.54297 1.0508-1.1055 2.082-1.5547 3.1133-0.60156 1.3516-2.457 5.4766-3.0547 8.2109-1.875 8.418-9.2422 14.477-17.852 14.68l-48.355 1.1797 1.0859 83.906 48.77-0.60156c9.0938-0.28125 16.293 5.7734 18.395 14.176 0.44922 1.8203 1.293 3.4883 2.0625 5.2305l1.707 3.9766c0.63672 1.8008 1.5742 3.9766 4.0117 7.8945 4.6133 7.3867 3.543 16.969-2.6055 23.156l-33.562 33.77 62.008 59.363 34.07-34.293c3.5469-3.6367 8.3633-5.5664 13.258-5.5664zm-151.61-107.12h-0.20703 0.32031-0.11328zm465.68-2.6992v0.39453zm-466.01-81.168c-0.019531 0-0.019531 0 0 0zm2.6992-4.0117v0.35547-0.35547zm465.88-2.0078h0.28125zm-190.33-182.21h0.28125zm-89.59-2.8711v0.35547-0.35547z"/>
  <path d="m600.84 709.45c-29.586 0-57.355-10.988-78.301-31.031-21.395-20.477-33.355-48.168-33.73-77.98-0.375-29.832 10.914-57.805 31.762-78.805 20.738-20.867 48.789-32.586 78.957-32.945 29.852-0.13281 58.5 10.633 79.781 31.012 21.375 20.438 33.336 48.133 33.75 77.98v0.28125c-0.054688 30.074-11.324 57.977-31.762 78.523-20.758 20.887-48.824 32.586-78.977 32.961-0.48828 0.003906-0.99219 0.003906-1.4805 0.003906zm0.16797-183.27h-0.99219c-20.305 0.24219-39.055 8.0234-52.836 21.883-13.688 13.781-21.094 32.211-20.852 51.898 0.24219 19.668 8.1172 37.895 22.164 51.355 14.137 13.539 32.852 20.945 53.383 20.605 20.289-0.24219 39.055-8.0234 52.855-21.898 13.387-13.461 20.773-31.93 20.852-51.992-0.30078-19.648-8.1758-37.855-22.18-51.242-13.918-13.312-32.5-20.609-52.395-20.609z"/>
  <path d="m584.2 135.41h37.5v119.76h-37.5z"/>
  <path d="m602.29 169.82c-36.992 0-67.07-29.68-67.07-66.148 0-36.492 30.074-66.172 67.07-66.172 36.992 0 67.07 29.68 67.07 66.168-0.003906 36.469-30.078 66.152-67.07 66.152zm0-94.82c-16.312 0-29.57 12.863-29.57 28.668 0 15.805 13.258 28.648 29.57 28.648s29.57-12.863 29.57-28.648c-0.003906-15.785-13.258-28.668-29.57-28.668z"/>
  <path d="m299.34 434.46-107.87-69.246"/>
  <path d="m181.34 380.96 20.246-31.539 107.86 69.238-20.246 31.539z"/>
  <path d="m162.96 416.02c-11.324 0-22.762-2.8125-33.242-8.7578-15.656-8.8672-26.832-23.25-31.445-40.48-4.5742-17.062-2.1367-34.836 6.8438-50.102 18.469-31.387 59.477-42.227 91.387-24.168 15.656 8.8672 26.832 23.25 31.445 40.48 4.5742 17.062 2.1367 34.836-6.8438 50.102-12.395 21.098-34.969 32.926-58.145 32.926zm0.16797-94.816c-10.258 0-20.23 5.1953-25.707 14.477-3.8242 6.5234-4.875 14.117-2.9258 21.395 1.9883 7.4258 6.8633 13.668 13.707 17.551 14.211 8.0234 32.418 3.3359 40.574-10.555 3.8438-6.5234 4.8945-14.117 2.9453-21.395-1.9883-7.4258-6.8633-13.668-13.707-17.551-4.6875-2.6484-9.8242-3.9219-14.887-3.9219z"/>
  <path d="m296.4 760.54-107.89 69.242"/>
  <path d="m178.4 813.98 107.88-69.25 20.246 31.539-107.88 69.25z"/>
  <path d="m160.97 912.36c-23.137 0-45.711-11.812-58.145-32.906-8.9805-15.262-11.418-33.055-6.8438-50.102 4.6133-17.23 15.789-31.613 31.445-40.48 31.855-18.055 72.918-7.2734 91.406 24.168 8.9805 15.242 11.398 33.039 6.8242 50.102-4.6133 17.23-15.789 31.613-31.445 40.48-10.461 5.9062-21.938 8.7383-33.242 8.7383zm-0.14844-94.801c-5.082 0-10.199 1.2578-14.906 3.9375-6.8438 3.8828-11.719 10.125-13.707 17.551-1.9492 7.2734-0.89844 14.867 2.9258 21.395 8.2109 13.875 26.457 18.617 40.594 10.555 6.8438-3.8828 11.719-10.125 13.707-17.551 1.9492-7.2734 0.89844-14.867-2.9258-21.395-5.4766-9.3164-15.434-14.492-25.688-14.492zm-24.152-12.391h0.1875z"/>
  <path d="m578.3 944.83h37.5v119.76h-37.5z"/>
  <path d="m597.71 1162.5c-36.992 0-67.07-29.68-67.07-66.168 0-36.469 30.074-66.148 67.07-66.148 36.992 0 67.07 29.68 67.07 66.148 0 36.488-30.074 66.168-67.07 66.168zm0-94.82c-16.312 0-29.57 12.863-29.57 28.648 0.003906 15.789 13.258 28.672 29.57 28.672s29.57-12.863 29.57-28.668c0-15.809-13.258-28.652-29.57-28.652z"/>
  <path d="m900.66 765.54 107.87 69.246"/>
  <path d="m890.49 781.3 20.246-31.539 107.86 69.238-20.246 31.539z"/>
  <path d="m1036.7 916.24c-11.324 0-22.762-2.8125-33.227-8.7578-15.656-8.8672-26.832-23.25-31.445-40.48-4.5742-17.062-2.1367-34.836 6.8438-50.102 18.43-31.406 59.438-42.227 91.387-24.168 15.656 8.8672 26.832 23.25 31.445 40.48 4.5742 17.062 2.1367 34.836-6.8438 50.102-12.43 21.113-35.004 32.926-58.16 32.926zm0.16797-94.801c-10.258 0-20.211 5.1758-25.668 14.477-3.8438 6.5234-4.8945 14.117-2.9453 21.395 1.9883 7.4258 6.8633 13.668 13.707 17.551 14.211 8.1016 32.438 3.3359 40.594-10.555 3.8242-6.5234 4.875-14.117 2.9258-21.395-1.9883-7.4258-6.8633-13.668-13.707-17.551-4.707-2.6641-9.8438-3.9219-14.906-3.9219z"/>
  <path d="m903.6 439.46 107.89-69.242"/>
  <path d="m893.44 423.67 107.88-69.25 20.246 31.539-107.88 69.25z"/>
  <path d="m1039.3 419.91c-23.137 0-45.711-11.812-58.145-32.926-8.9805-15.242-11.398-33.039-6.8242-50.102 4.6133-17.23 15.789-31.613 31.445-40.48 31.875-18.055 72.918-7.2578 91.387 24.148 8.9805 15.262 11.418 33.055 6.8438 50.102-4.6133 17.23-15.789 31.613-31.445 40.48-10.461 5.9648-21.938 8.7773-33.262 8.7773zm-0.13281-94.801c-5.082 0-10.219 1.2578-14.906 3.918-6.8438 3.8828-11.719 10.125-13.707 17.551-1.9492 7.2734-0.89844 14.867 2.9258 21.395 8.1953 13.895 26.383 18.656 40.594 10.555 6.8438-3.8828 11.719-10.125 13.707-17.551 1.9492-7.2734 0.89844-14.867-2.9258-21.395-5.4727-9.2773-15.43-14.473-25.688-14.473z"/>
 </g>
</svg>
