<?xml version="1.0" encoding="UTF-8"?>
<svg width="1200pt" height="1200pt" version="1.1" viewBox="0 0 1200 1200" xmlns="http://www.w3.org/2000/svg">
 <path d="m638.04 933.92c14.363-16.594 23.129-38.168 23.129-61.789 0-52.164-42.43-94.594-94.594-94.594s-94.605 42.43-94.605 94.594c0 23.621 8.7656 45.195 23.129 61.789-61.164 27.77-103.02 89.816-104.77 159.55-0.17188 6.8086 3.5859 13.113 9.6719 16.188 48.625 24.66 106.24 37.691 166.57 37.691 60.344 0 117.94-13.039 166.57-37.691 6.0859-3.0859 9.8438-9.3789 9.6719-16.188-1.75-69.734-43.594-131.79-104.77-159.55zm-71.461-121.07c32.695 0 59.277 26.598 59.277 59.277 0 30.625-23.352 55.91-53.18 58.973-4.0547 0.26953-8.1172 0.26953-12.184 0-29.84-3.0625-53.203-28.336-53.203-58.973 0-32.68 26.598-59.277 59.289-59.277zm-0.011719 299.19c-50.535 0-98.742-9.957-140.21-28.887 5.8672-57.332 45.207-106.42 99.367-123.2 12.098 4.1992 25.078 6.3555 38.105 6.625 0.91797 0.023437 1.8125 0.13281 2.7422 0.13281 0.94141 0 1.8477-0.10938 2.7812-0.14844 13.016-0.28125 25.984-2.4375 38.07-6.625 54.16 16.777 93.504 65.852 99.367 123.2-41.461 18.938-89.672 28.902-140.22 28.902zm-294.76-151.3c11.484-14.34 18.402-32.484 18.402-52.238 0-46.164-37.555-83.73-83.73-83.73s-83.73 37.555-83.73 83.73c0 19.75 6.918 37.898 18.402 52.238-51.77 24.859-86.996 78.062-88.504 137.77-0.17188 6.8086 3.5859 13.113 9.6719 16.188 42.098 21.355 91.945 32.645 144.16 32.645 52.199 0 102.05-11.289 144.16-32.645 6.0859-3.0859 9.8438-9.3789 9.6719-16.188-1.4922-59.707-36.734-112.91-88.504-137.77zm-65.328-100.65c26.695 0 48.418 21.723 48.418 48.418 0 26.512-21.441 48.074-47.891 48.367h-1.0156c-26.461-0.26953-47.926-21.832-47.926-48.367 0.011719-26.707 21.723-48.418 48.414-48.418zm0 251.95c-42.391 0-82.824-8.2148-117.73-23.84 5.5234-47.215 38.02-87.488 82.617-101.64 10.75 3.6367 22.262 5.4727 33.797 5.6094 0.44141 0.011719 0.87109 0.0625 1.3086 0.0625 0.46484 0 0.91797-0.0625 1.3711-0.074219 11.512-0.13281 23.008-1.9727 33.734-5.5977 44.609 14.156 77.094 54.43 82.617 101.64-34.887 15.613-75.328 23.84-117.71 23.84zm826.89-192.99c16.055-17.84 25.91-41.352 25.91-67.176 0-55.492-45.148-100.64-100.64-100.64s-100.64 45.148-100.64 100.64c0 25.824 9.8711 49.348 25.922 67.176-66.453 29.328-112.08 96.258-113.98 171.6-0.17187 6.8086 3.5859 13.113 9.6719 16.188 52.262 26.496 114.17 40.508 179.03 40.508 64.859 0 126.77-14.008 179.03-40.508 6.0859-3.0859 9.8438-9.3789 9.6719-16.188-1.9023-75.348-47.527-142.27-113.98-171.6zm-74.73-132.5c36.023 0 65.328 29.301 65.328 65.328 0 33.758-25.738 61.617-58.617 64.984-4.4688 0.29297-8.9375 0.29297-13.406 0-32.891-3.3672-58.629-31.223-58.629-64.984-0.003906-36.027 29.312-65.328 65.324-65.328zm0 325.49c-55.066 0-107.6-10.934-152.72-31.691 6.0508-62.977 49.199-116.98 108.69-135.2 13.262 4.6523 27.504 7.0156 41.781 7.25 0.75781 0.011719 1.4922 0.10938 2.2656 0.10938 0.76953 0 1.5195-0.097656 2.2891-0.10938 14.266-0.23438 28.48-2.6094 41.742-7.25 59.484 18.219 102.64 72.219 108.69 135.2-45.137 20.758-97.656 31.691-152.73 31.691zm-855.11-380.14c3.1953 14.082 11.719 26.105 24.012 33.832 12.27 7.7266 26.766 10.223 40.887 7.0273l69.246-15.734c1.1016 2.4844 2.3398 4.8984 3.4883 7.3594 0.28125 0.71094 0.60156 1.3945 0.98047 2.0703 21.527 45.344 50.754 86.105 87.32 121.34 3.418 3.3047 7.8359 4.9336 12.246 4.9336 4.6289 0 9.2461-1.8125 12.723-5.4141 1.7617-1.8242 3.0234-3.9414 3.8438-6.1836l202.51-233.4 122.38 106.18c3.5273 3.0742 8.2031 4.6406 12.82 4.2734 4.6641-0.33203 9.0117-2.4961 12.086-6.0352l165.4-190.64c0.85547 8.5586 1.3945 17.168 1.3945 25.801 0 5.0312-0.14844 10.039-0.42969 15-0.55078 9.5273 6.5859 17.766 16.09 18.602l125.66 10.984c0.51562 0.050781 1.0273 0.074219 1.5312 0.074219 4.1992 0 8.2773-1.4922 11.484-4.25 3.6133-3.0859 5.8164-7.4922 6.1328-12.234 4.5781-68.547-7.9453-137.11-35.879-199.2l59.203-68.23 49.078 42.586c5.2422 4.543 12.648 5.582 18.93 2.7188 6.293-2.8789 10.324-9.1836 10.297-16.102l-0.71484-231.54c-0.011719-5.1055-2.2422-9.9414-6.0859-13.285s-8.9766-4.875-13.996-4.1523l-229.32 31.961c-6.8555 0.95703-12.527 5.8281-14.496 12.477-1.9727 6.6367 0.12109 13.812 5.3516 18.355l49.09 42.586-33.93 39.109c-55.199-48.121-121.32-80.816-192.83-94.887l-0.003906-71.004c0-29.902-24.332-54.234-54.219-54.234h-53.633c-29.902 0-54.219 24.332-54.219 54.234v71.008c-69.504 13.664-134.07 44.766-188.33 90.699l-55.555-44.352c-23.352-18.648-57.562-14.816-76.211 8.5586l-33.441 41.902c-9.0117 11.289-13.078 25.445-11.461 39.871 1.6172 14.426 8.7188 27.332 20.008 36.344l55.508 44.312c-32.598 62.754-48.574 132.62-46.594 203.75l-69.344 15.758c-29.156 6.625-47.484 35.742-40.859 64.898zm897.33-136.78-90.699-7.9336c-0.011718-20.387-2.2656-40.676-6.4766-60.516l70.078-80.781c18.797 47.207 28.117 98.023 27.098 149.23zm-37.613-376.58-33.074-28.703 170.82-23.805 0.52734 172.47-33.062-28.703c-3.5391-3.0625-8.1289-4.6172-12.82-4.2734-4.6641 0.33203-9.0117 2.4961-12.086 6.0352l-78.051 89.965c-0.011719 0.011719-0.023438 0.023438-0.035156 0.050781l-272.51 314.09-122.38-106.18c-7.3594-6.3906-18.516-5.6094-24.906 1.7617l-205.63 236.99c-24.711-26.352-45.234-55.762-61.492-87.746l268.3-309.23 122.38 106.18c3.5273 3.0742 8.168 4.6641 12.82 4.2734 4.6641-0.33203 9.0117-2.4961 12.086-6.0352l270.89-312.22c6.3945-7.375 5.5977-18.531-1.7734-24.922zm-600.16 368.77c0-141.1 114.79-255.88 255.88-255.88 62.484 0 121.58 22.336 168.2 63.133l-108.15 124.64-122.38-106.18c-3.5273-3.0625-8.1289-4.6289-12.82-4.2734-4.6641 0.33203-9.0117 2.4961-12.086 6.0352l-167.73 193.33c-0.5625-6.9062-0.91797-13.848-0.91797-20.805zm-222.73 61.863 83.73-19.027c8.4492-1.9219 14.254-9.6875 13.703-18.344-4.7266-74.535 12.074-147.99 48.586-212.46 4.2734-7.543 2.4375-17.082-4.3477-22.508l-67.066-53.535c-3.918-3.1328-6.3789-7.6289-6.957-12.688-0.5625-5.043 0.84375-9.9922 3.9805-13.898l33.43-41.902c6.5273-8.1562 18.453-9.4766 26.598-2.9883l67.09 53.559c6.7852 5.4141 16.48 5.1055 22.898-0.73437 55.164-50.18 123.06-82.887 196.35-94.555 8.5703-1.3594 14.879-8.7539 14.879-17.438l-0.003906-85.781c0-10.434 8.4844-18.918 18.918-18.918h53.609c10.422 0 18.918 8.4844 18.918 18.918v85.801c0 8.6797 6.3047 16.066 14.879 17.438 70.641 11.266 136.09 42.207 190.12 89.328l-59.387 68.449c-53.043-46.371-120.25-71.766-191.34-71.766-160.57 0-291.2 130.63-291.2 291.2 0 18.918 1.8867 37.801 5.4961 56.23l-71.266 82.141c-4.1133-5.2539-10.934-7.8984-17.754-6.3555l-83.633 19.004c-4.875 1.1133-9.9414 0.24609-14.266-2.4727-4.2969-2.707-7.2734-6.8945-8.3867-11.781l-11.879-52.273c-2.2734-10.172 4.1172-20.336 14.293-22.637z"/>
</svg>
