<?xml version="1.0" encoding="UTF-8"?>
<svg width="1200pt" height="1200pt" version="1.1" viewBox="0 0 1200 1200" xmlns="http://www.w3.org/2000/svg">
 <path d="m497.44 756.27c-5.375 9.4609-15.551 15.875-27.148 15.875h-94.289c-11.602 0-21.773-6.4141-27.148-15.875zm230.05-213.4c15.637 3.7266 30.562 9.9258 44.25 18.336l28.75-12.773 33.887 33.887-12.762 28.738c8.4258 13.688 14.625 28.625 18.352 44.262l29.336 11.289v47.926l-29.336 11.289c-3.7266 15.637-9.9258 30.562-18.336 44.25l12.762 28.75-33.887 33.887-28.738-12.762c-13.688 8.4258-28.625 14.625-44.262 18.352l-11.289 29.336h-47.926l-11.289-29.336c-15.637-3.7266-30.562-9.9141-44.25-18.336l-28.75 12.762-33.887-33.887 12.762-28.738c-8.4258-13.688-14.625-28.625-18.352-44.262l-29.336-11.289v-47.93l29.336-11.289c3.7266-15.637 9.9141-30.562 18.336-44.25l-12.762-28.75 33.887-33.887 28.75 12.773c13.688-8.4258 28.613-14.625 44.25-18.336l11.289-29.336h47.926zm-35.262 56.836c-50.199 0-90.875 40.688-90.875 90.875s40.688 90.875 90.875 90.875 90.875-40.688 90.875-90.875-40.676-90.875-90.875-90.875zm0-188.04-441.43 233.51h226.61v-4.5l36.262-13.949c2.1016-5.8633 4.4883-11.625 7.1484-17.25l-15.773-35.512 70.562-70.562 35.523 15.773c5.625-2.6641 11.387-5.0508 17.25-7.1484l13.961-36.262h99.789l13.961 36.262c5.8633 2.1016 11.625 4.4883 17.25 7.1484l35.512-15.773 70.562 70.562-15.773 35.512c2.6641 5.6367 5.0625 11.387 7.1484 17.262l36.25 13.949v4.5h226.61zm-413.48 699.04h826.95v46.461l-826.95 0.003906zm788.93-427.75v35.551h-160.62v-35.551zm-590.26 35.551h-160.62v-35.551h160.64v35.551zm689.14-289.6c0 9.1367-7.4766 16.625-16.625 16.625h-176.62c-9.1367 0-16.625-7.4766-16.625-16.625v-156.62h-116.34v175.01l-37.773-19.977-0.003906-173.93c0-10.426 8.4492-18.887 18.887-18.887h135.21l0.003906-156.18c0-9.1367 7.4766-16.625 16.625-16.625h17.961l11.926 48.227c2.0742 8.4141 9.625 14.352 18.301 14.336l80.273 0.039062c9.3242 0 17.074-6.7617 18.613-15.648l11.613-46.949h17.961c9.1367 0 16.625 7.4766 16.625 16.625zm-1069.9 0.17188v-29.387c0-11.363 11.637-20.648 25.852-20.648h46.137v-48.164h-104.89c-16.676 0-30.312-13.637-30.312-30.312v-208.55c0-16.676 13.637-30.312 30.312-30.312h333.7c16.676 0 30.312 13.637 30.312 30.312v114.93h82.438c10.426 0 18.887 8.4492 18.887 18.887v191.27h72.062l-71.398 37.773h-19.551c-10.426 0-18.887-8.4492-18.887-18.887v-191.27h-63.551v55.852c0 16.676-13.637 30.312-30.312 30.312h-104.89v48.164h46.137c14.211 0 25.852 9.3008 25.852 20.648v29.387zm595.56-153.35c-18.25 0-33.051 14.801-33.051 33.051s14.801 33.051 33.051 33.051 33.051-14.801 33.051-33.051c-0.003906-18.25-14.789-33.051-33.051-33.051zm90.062-39.676c-23.324-25.523-55.301-40.738-90.062-40.738-34.762 0-66.738 15.211-90.062 40.738-7.0117 7.6641-6.4766 19.551 1.1758 26.562 7.6641 7.0117 19.551 6.4766 26.562-1.1758 16.148-17.676 38.238-28.352 62.324-28.352 24.086 0 46.176 10.676 62.324 28.352 7.0117 7.6641 18.898 8.1875 26.562 1.1758 7.6484-7.0117 8.1875-18.898 1.1758-26.562zm-201.64-28.539c28.914-31.637 68.477-50.676 111.59-50.676 21.312 0 41.613 4.625 60.102 13.012 19.414 8.8008 36.875 21.688 51.477 37.676 7.0117 7.6641 18.898 8.1875 26.562 1.1758 7.6641-7.0117 8.1875-18.898 1.1758-26.562-36.086-39.488-85.539-63.074-139.32-63.074-53.789 0-103.24 23.574-139.32 63.074-7.0117 7.6641-6.4766 19.551 1.1758 26.562 7.6719 7 19.559 6.4648 26.57-1.1875zm300.16-79.297c-48.836-53.449-115.77-85.398-188.57-85.398s-139.74 31.949-188.57 85.398c-7.0117 7.6641-6.4766 19.551 1.1758 26.562 7.6641 7.0117 19.551 6.4766 26.562-1.1758 41.664-45.602 98.711-73.012 160.84-73.012s119.18 27.414 160.84 73.012c7.0117 7.6641 18.898 8.1875 26.562 1.1758 7.6523-7.0156 8.1758-18.902 1.1758-26.562zm149.26-66.516 6.1367 24.836h50.801l6.1367-24.836zm16.215 355.88c-10.426 0-18.887-8.4492-18.887-18.887s8.4492-18.887 18.887-18.887h30.648c10.426 0 18.887 8.4492 18.887 18.887s-8.4492 18.887-18.887 18.887zm-48.062 392.34v209.39h-73.824l-0.003906-209.39zm-269.08 95.473v113.9h-73.824v-113.9zm-269.09-95.473v209.39h-73.824v-209.39zm-84.062 247.15h94.289c11.602 0 21.773 6.4141 27.148 15.875h-148.57c5.375-9.4609 15.551-15.875 27.137-15.875zm269.09 0h94.289c11.602 0 21.773 6.4141 27.148 15.875h-148.59c5.375-9.4609 15.551-15.875 27.148-15.875zm269.08 0h94.289c11.602 0 21.773 6.4141 27.148 15.875h-148.59c5.3867-9.4609 15.551-15.875 27.152-15.875zm121.44-300.8c-5.375 9.4609-15.551 15.875-27.148 15.875h-94.289c-11.602 0-21.773-6.4141-27.148-15.875z" fill-rule="evenodd"/>
</svg>
