<?xml version="1.0" encoding="UTF-8"?>
<svg width="1200pt" height="1200pt" version="1.1" viewBox="0 0 1200 1200" xmlns="http://www.w3.org/2000/svg">
 <g>
  <path d="m318.75 956.25c0 31.066-25.184 56.25-56.25 56.25s-56.25-25.184-56.25-56.25 25.184-56.25 56.25-56.25 56.25 25.184 56.25 56.25"/>
  <path d="m427.84 566.25c-4.2773-21.148-12.633-41.258-24.598-59.211-2.3906-3.6094-3.4609-7.9336-3.0273-12.238 0.43359-4.3086 2.3438-8.332 5.4062-11.387l15.977-15.977-26.512-26.512-15.977 15.977v-0.003906c-3.0586 3.0625-7.0859 4.9688-11.391 5.3984-4.3047 0.42969-8.6289-0.64062-12.234-3.0352-17.965-11.957-38.082-20.32-59.23-24.617-4.2344-0.86719-8.043-3.168-10.773-6.5156-2.7344-3.3477-4.2266-7.5391-4.2266-11.859v-22.52h-37.5v22.5c0 4.3242-1.4922 8.5117-4.2266 11.859-2.7305 3.3516-6.5391 5.6523-10.773 6.5156-21.141 4.2969-41.25 12.648-59.211 24.602-3.6055 2.3906-7.9297 3.4648-12.234 3.0312-4.3086-0.42969-8.332-2.3359-11.391-5.3945l-15.977-15.977-26.531 26.531 15.977 15.977c3.0625 3.0586 4.9727 7.082 5.4062 11.387 0.43359 4.3047-0.63672 8.6289-3.0273 12.238-11.969 17.957-20.324 38.078-24.598 59.23-0.86719 4.2422-3.1758 8.0508-6.5312 10.785-3.3555 2.7344-7.5547 4.2227-11.883 4.2148h-22.5v37.5h22.5c4.3242-0.003906 8.5195 1.4844 11.871 4.2188 3.3555 2.7344 5.6562 6.543 6.5234 10.781 4.2852 21.137 12.633 41.238 24.582 59.195 2.3906 3.6055 3.4648 7.9258 3.0312 12.234-0.42969 4.3047-2.3359 8.3281-5.3945 11.391l-15.977 15.977 26.512 26.512 15.977-15.977c3.0586-3.0586 7.0859-4.9688 11.391-5.3984 4.3047-0.42969 8.6289 0.64062 12.234 3.0352 17.969 11.969 38.09 20.328 59.25 24.617 4.2383 0.86719 8.0469 3.1719 10.781 6.5234s4.2227 7.5469 4.2188 11.871v22.52h37.5v-22.5c-0.003906-4.3242 1.4844-8.5195 4.2188-11.871 2.7344-3.3555 6.543-5.6562 10.781-6.5234 21.137-4.2852 41.238-12.633 59.195-24.582 3.6055-2.3906 7.9258-3.4648 12.234-3.0312 4.3047 0.42969 8.3281 2.3359 11.391 5.3945l15.977 15.977 26.512-26.512-15.977-15.977c-3.0586-3.0586-4.9688-7.0859-5.3984-11.391-0.42969-4.3047 0.64062-8.6289 3.0352-12.234 11.969-17.969 20.328-38.09 24.617-59.25 0.86719-4.2422 3.1758-8.0508 6.5312-10.785 3.3555-2.7344 7.5547-4.2227 11.883-4.2148h22.5v-37.5h-22.5c-4.3281 0.007812-8.5273-1.4805-11.883-4.2148-3.3555-2.7344-5.6641-6.543-6.5312-10.785zm-165.34 165c-34.809 0-68.195-13.828-92.809-38.441-24.613-24.613-38.441-58-38.441-92.809s13.828-68.195 38.441-92.809c24.613-24.613 58-38.441 92.809-38.441s68.195 13.828 92.809 38.441c24.613 24.613 38.441 58 38.441 92.809-0.042969 34.797-13.887 68.152-38.492 92.758-24.605 24.605-57.961 38.449-92.758 38.492z"/>
  <path d="m279.38 1050h-33.75c-18.621-0.027344-36.855 5.2891-52.547 15.316-15.688 10.027-28.172 24.344-35.973 41.254 29.863 24.059 67.062 37.18 105.41 37.18 38.352 0 75.547-13.121 105.41-37.18-7.8008-16.914-20.289-31.238-35.988-41.262-15.695-10.027-33.941-15.34-52.566-15.309z"/>
  <path d="m318.75 187.5c0 31.066-25.184 56.25-56.25 56.25s-56.25-25.184-56.25-56.25 25.184-56.25 56.25-56.25 56.25 25.184 56.25 56.25"/>
  <path d="m195.92 253.37c-17.477-17.621-27.254-41.453-27.188-66.273 0.070312-24.82 9.9766-48.598 27.551-66.125s41.379-27.367 66.199-27.367c24.82 0 48.629 9.8398 66.203 27.367 17.574 17.527 27.48 41.305 27.547 66.125 0.066406 24.82-9.707 48.652-27.188 66.273 31.688 12.566 57.504 36.57 72.34 67.258 23.422-33.934 33.605-75.27 28.637-116.2-4.9727-40.934-24.754-78.629-55.617-105.97-30.863-27.344-70.672-42.438-111.9-42.438s-81.039 15.094-111.9 42.438c-30.863 27.34-50.645 65.035-55.617 105.97-4.9688 40.93 5.2148 82.266 28.637 116.2 14.828-30.684 40.629-54.684 72.301-67.258z"/>
  <path d="m373.12 352.33c-5.8164-20.406-18.105-38.371-35.012-51.188-16.906-12.82-37.52-19.801-58.738-19.895h-33.75c-21.219 0.09375-41.832 7.0742-58.738 19.895-16.906 12.816-29.195 30.781-35.012 51.188 15.973 13.879 34.418 24.617 54.375 31.648v-8.9805c0-4.9727 1.9766-9.7422 5.4922-13.258 3.5156-3.5156 8.2852-5.4922 13.258-5.4922h75c4.9727 0 9.7422 1.9766 13.258 5.4922 3.5156 3.5156 5.4922 8.2852 5.4922 13.258v8.9805c19.957-7.0312 38.402-17.77 54.375-31.648z"/>
  <path d="m318.75 816.02v8.9805c0 4.9727-1.9766 9.7422-5.4922 13.258-3.5156 3.5156-8.2852 5.4922-13.258 5.4922h-75c-4.9727 0-9.7422-1.9766-13.258-5.4922-3.5156-3.5156-5.4922-8.2852-5.4922-13.258v-8.9805c-33.773 11.867-62.879 34.195-83.094 63.738-20.215 29.543-30.484 64.762-29.316 100.54 1.168 35.777 13.715 70.25 35.816 98.41 15.211-25.691 38.566-45.566 66.355-56.477-17.508-17.609-27.312-41.445-27.262-66.277s9.9492-48.633 27.523-66.172c17.578-17.543 41.395-27.395 66.227-27.395s48.648 9.8516 66.227 27.395c17.574 17.539 27.473 41.34 27.523 66.172s-9.7539 48.668-27.262 66.277c27.789 10.91 51.145 30.785 66.355 56.477 22.102-28.16 34.648-62.633 35.816-98.41 1.168-35.777-9.1016-70.996-29.316-100.54-20.215-29.543-49.32-51.871-83.094-63.738z"/>
  <path d="m693.75 562.5h-112.5v75h112.5c3.8203-0.003906 7.5469 1.1602 10.688 3.3359 3.1406 2.1758 5.5391 5.2578 6.8828 8.832l49.668-49.668-49.668-49.668c-1.3438 3.5742-3.7422 6.6562-6.8828 8.832-3.1406 2.1758-6.8672 3.3398-10.688 3.3359z"/>
  <path d="m1068.8 364.01v48.488h48.488z"/>
  <path d="m1050 450c-4.9727 0-9.7422-1.9766-13.258-5.4922-3.5156-3.5156-5.4922-8.2852-5.4922-13.258v-18.75h-187.5v-37.5h187.5v-37.5h-169.11c-23.473 31.297-56.117 54.492-93.395 66.355v150.88l32.008 32.008v-0.003906c3.5117 3.5195 5.4883 8.2852 5.4883 13.258s-1.9766 9.7383-5.4883 13.258l-32.008 32.004v160.99h11.961l107.27-89.418c3.6719-3.0664 8.375-4.6133 13.148-4.3242 4.7734 0.28516 9.2578 2.3867 12.531 5.8711 3.2773 3.4844 5.0977 8.0898 5.0898 12.871v75h18.75c14.918 0 29.227 5.9258 39.773 16.477 10.551 10.547 16.477 24.855 16.477 39.773h150v-412.5zm56.25 225h-262.5v-37.5h262.5zm0-75h-262.5v-37.5h262.5zm0-75h-262.5v-37.5h262.5z"/>
  <path d="m937.5 843.75h-37.5c-4.9727 0-9.7422-1.9766-13.258-5.4922-3.5156-3.5156-5.4922-8.2852-5.4922-13.258v-53.719l-81.73 68.137c-3.3828 2.7969-7.6328 4.332-12.02 4.332h-187.5c-4.9727 0-9.7422 1.9766-13.258 5.4922-3.5156 3.5156-5.4922 8.2852-5.4922 13.258v262.5c0 4.9727 1.9766 9.7422 5.4922 13.258 3.5156 3.5156 8.2852 5.4922 13.258 5.4922h337.5c4.9727 0 9.7422-1.9766 13.258-5.4922 3.5156-3.5156 5.4922-8.2852 5.4922-13.258v-262.5c0-4.9727-1.9766-9.7422-5.4922-13.258-3.5156-3.5156-8.2852-5.4922-13.258-5.4922zm-281.25 56.25h225v37.5h-225zm262.5 187.5h-300v-37.5h300zm0-75h-300v-37.5h300z"/>
  <path d="m712.5 375c39.781 0 77.938-15.805 106.07-43.934s43.934-66.285 43.934-106.07-15.805-77.938-43.934-106.07-66.285-43.934-106.07-43.934-77.938 15.805-106.07 43.934-43.934 66.285-43.934 106.07c0.042969 39.77 15.863 77.895 43.984 106.02s66.246 43.941 106.02 43.984zm-125.76-144.51 37.5-37.5c3.5195-3.5117 8.2852-5.4883 13.258-5.4883s9.7383 1.9766 13.258 5.4883l24.242 24.246 80.492-80.492v-0.003906c3.5195-3.5117 8.2852-5.4883 13.258-5.4883s9.7383 1.9766 13.258 5.4883l37.5 37.5c3.5117 3.5195 5.4883 8.2852 5.4883 13.258s-1.9766 9.7383-5.4883 13.258l-131.25 131.25c-3.5195 3.5117-8.2852 5.4883-13.258 5.4883s-9.7383-1.9766-13.258-5.4883l-75-75c-3.5117-3.5195-5.4883-8.2852-5.4883-13.258s1.9766-9.7383 5.4883-13.258z"/>
  <path d="m779.74 187.5-10.988-10.988-80.492 80.492v0.003906c-3.5195 3.5117-8.2852 5.4883-13.258 5.4883s-9.7383-1.9766-13.258-5.4883l-24.242-24.246-10.988 10.988 48.488 48.488z"/>
 </g>
</svg>
