<?xml version="1.0" encoding="UTF-8"?>
<svg width="1200pt" height="1200pt" version="1.1" viewBox="0 0 1200 1200" xmlns="http://www.w3.org/2000/svg">
 <g>
  <path d="m785.39 936.73h-25.781c-6.6992 0-12.887-3.5742-16.238-9.375-3.3477-5.8008-3.3477-12.949 0-18.75 3.3516-5.8008 9.5391-9.375 16.238-9.375h25.781c6.6992 0 12.887 3.5742 16.238 9.375 3.3477 5.8008 3.3477 12.949 0 18.75-3.3516 5.8008-9.5391 9.375-16.238 9.375z"/>
  <path d="m878.53 936.73h-25.641c-6.6992 0-12.887-3.5742-16.238-9.375-3.3477-5.8008-3.3477-12.949 0-18.75 3.3516-5.8008 9.5391-9.375 16.238-9.375h25.641c6.6992 0 12.887 3.5742 16.238 9.375 3.3477 5.8008 3.3477 12.949 0 18.75-3.3516 5.8008-9.5391 9.375-16.238 9.375z"/>
  <path d="m971.7 936.73h-27.469c-6.6992 0-12.887-3.5742-16.238-9.375-3.3477-5.8008-3.3477-12.949 0-18.75 3.3516-5.8008 9.5391-9.375 16.238-9.375h27.469c6.6992 0 12.887 3.5742 16.238 9.375 3.3477 5.8008 3.3477 12.949 0 18.75-3.3516 5.8008-9.5391 9.375-16.238 9.375z"/>
  <path d="m493.29 1120.3c-5.7422 0.007812-11.172-2.6211-14.734-7.125-3.5586-4.5078-4.8594-10.398-3.5234-15.984l30.961-129.23c1.1602-4.8359 4.1914-9.0117 8.4297-11.613 4.2422-2.6016 9.3398-3.4102 14.176-2.25 4.8359 1.1602 9.0117 4.1914 11.613 8.4297 2.6016 4.2422 3.4102 9.3398 2.25 14.176l-30.961 129.19c-0.97266 4.0977-3.3008 7.75-6.6055 10.367-3.3047 2.6133-7.3906 4.0391-11.605 4.0469z"/>
  <path d="m706.71 1120.3c-4.3203-0.003906-8.5078-1.5039-11.852-4.2422-3.3438-2.7383-5.6406-6.5469-6.5-10.781l-26.273-129.19c-1.3359-6.5664 0.93359-13.344 5.9492-17.781 5.0195-4.4414 12.023-5.8633 18.375-3.7383 6.3555 2.125 11.09 7.4766 12.426 14.043l26.273 129.21c1.1172 5.5195-0.30078 11.246-3.8672 15.602-3.5664 4.3594-8.9023 6.8828-14.531 6.875z"/>
  <path d="m780.47 1120.3h-362.09c-6.6992 0-12.887-3.5742-16.238-9.375-3.3477-5.8008-3.3477-12.949 0-18.75 3.3516-5.8008 9.5391-9.375 16.238-9.375h362.09c6.6992 0 12.887 3.5742 16.238 9.375 3.3477 5.8008 3.3477 12.949 0 18.75-3.3516 5.8008-9.5391 9.375-16.238 9.375z"/>
  <path d="m1026 991.1h-851.88c-13.551 0.3125-26.645-4.9336-36.23-14.52-9.5898-9.582-14.84-22.668-14.535-36.223v-521.34c0-28.992 22.289-51.703 50.766-51.703h188.58c6.6992 0 12.887 3.5742 16.238 9.375 3.3477 5.8008 3.3477 12.949 0 18.75-3.3516 5.8008-9.5391 9.375-16.238 9.375h-188.58c-10.477 0-13.266 8.9297-13.266 14.203v521.34c0 3.9844 1.2891 13.242 13.266 13.242h851.88c3.543 0.12109 6.9766-1.2383 9.4805-3.75 2.5-2.5117 3.8477-5.9492 3.7148-9.4922v-521.34c0-6.8672-5.2969-14.203-13.195-14.203h-188.65c-6.6992 0-12.887-3.5742-16.238-9.375-3.3477-5.8008-3.3477-12.949 0-18.75 3.3516-5.8008 9.5391-9.375 16.238-9.375h188.65c13.574 0.14844 26.535 5.6758 36.039 15.367 9.5039 9.6953 14.773 22.762 14.656 36.336v521.34c0.15234 13.496-5.1406 26.484-14.676 36.031-9.5391 9.5469-22.523 14.852-36.02 14.711z"/>
  <path d="m1057.9 882.35h-915.84c-6.6992 0-12.887-3.5742-16.238-9.375-3.3477-5.8008-3.3477-12.949 0-18.75 3.3516-5.8008 9.5391-9.375 16.238-9.375h915.84c6.6992 0 12.887 3.5742 16.238 9.375 3.3477 5.8008 3.3477 12.949 0 18.75-3.3516 5.8008-9.5391 9.375-16.238 9.375z"/>
  <path d="m771.4 704.7h-342.8c-22.449-0.023437-43.977-8.9531-59.852-24.828s-24.805-37.402-24.828-59.852v-455.65c0.023437-22.449 8.9531-43.977 24.828-59.852s37.402-24.805 59.852-24.828h342.8c22.449 0.023438 43.977 8.9531 59.852 24.828s24.805 37.402 24.828 59.852v455.65c-0.023437 22.449-8.9531 43.977-24.828 59.852s-37.402 24.805-59.852 24.828zm-342.8-587.51c-12.508 0.011719-24.504 4.9883-33.348 13.832s-13.82 20.84-13.832 33.348v455.65c0.011719 12.508 4.9883 24.504 13.832 33.348s20.84 13.82 33.348 13.832h342.8c12.508-0.011718 24.504-4.9883 33.348-13.832s13.82-20.84 13.832-33.348v-455.65c-0.011719-12.508-4.9883-24.504-13.832-33.348s-20.84-13.82-33.348-13.832z"/>
  <path d="m664.38 402.94h-128.77c-12.715-0.011719-24.91-5.0664-33.902-14.059-8.9961-8.9883-14.055-21.18-14.074-33.895 0.70312-3-7.8984-67.969 53.367-105.73 4.207-2.6211 9.2773-3.4727 14.109-2.3672 4.832 1.1055 9.0273 4.082 11.672 8.2734 7.2188 11.422 19.789 18.352 33.305 18.352s26.086-6.9297 33.305-18.352c2.6406-4.1953 6.8359-7.1758 11.668-8.2852 4.832-1.1133 9.9062-0.26562 14.113 2.3555 33.234 20.414 53.457 56.645 53.391 95.648v10.102c-0.019531 12.754-5.1094 24.977-14.148 33.969-9.0391 8.9961-21.285 14.027-34.039 13.984zm-116.27-112.03c-27.984 26.766-22.219 59.695-22.969 64.078 0.011719 5.7773 4.6992 10.453 10.477 10.453h128.77c5.7773 0 10.465-4.6758 10.477-10.453v-10.102c0.03125-20.352-8.2695-39.832-22.969-53.906-14.195 12.926-32.707 20.082-51.902 20.07-19.199-0.011719-37.703-7.1953-51.879-20.141z"/>
  <path d="m535.03 275.25c-3.4961-5.6523-3.7344-12.734-0.63281-18.613 3.1055-5.875 9.0898-9.6719 15.727-9.9766 6.6406-0.30078 12.945 2.9336 16.57 8.5039 7.2188 11.422 19.789 18.352 33.305 18.352s26.086-6.9297 33.305-18.352c2.6328-4.2617 6.8672-7.293 11.75-8.4141 4.8828-1.125 10.012-0.24609 14.242 2.4375s7.2148 6.9531 8.2773 11.848c1.0664 4.8945 0.12891 10.016-2.6055 14.215-14.098 22.266-38.617 35.758-64.969 35.758s-50.871-13.492-64.969-35.758z"/>
  <path d="m639.09 281.04c-4.1719-2.6641-7.1211-6.8672-8.207-11.699-1.0859-4.8281-0.21484-9.8906 2.418-14.082 5.0469-7.9844 7.0547-17.512 5.6641-26.852s-6.0898-17.871-13.242-24.039c-7.1523-6.1641-16.281-9.5547-25.727-9.5547s-18.574 3.3906-25.727 9.5547c-7.1523 6.168-11.852 14.699-13.242 24.039s0.61719 18.867 5.6641 26.852c2.7344 4.1992 3.6719 9.3203 2.6055 14.215-1.0625 4.8945-4.0469 9.1641-8.2773 11.848-4.2305 2.6836-9.3594 3.5625-14.242 2.4375-4.8828-1.1211-9.1172-4.1523-11.75-8.4141-9.8945-15.582-13.852-34.203-11.156-52.465 2.6992-18.262 11.871-34.941 25.848-47 13.973-12.059 31.82-18.691 50.277-18.684 60.938 0 96.984 67.57 64.969 118.05-3.5625 5.625-17.109 11.344-25.875 5.7891z"/>
  <path d="m751.45 483.16h-302.91c-6.6992 0-12.887-3.5742-16.238-9.375-3.3477-5.8008-3.3477-12.949 0-18.75 3.3516-5.8008 9.5391-9.375 16.238-9.375h302.91c6.6992 0 12.887 3.5742 16.238 9.375 3.3477 5.8008 3.3477 12.949 0 18.75-3.3516 5.8008-9.5391 9.375-16.238 9.375z"/>
  <path d="m751.45 555.19h-302.91c-6.6992 0-12.887-3.5742-16.238-9.375-3.3477-5.8008-3.3477-12.949 0-18.75 3.3516-5.8008 9.5391-9.375 16.238-9.375h302.91c6.6992 0 12.887 3.5742 16.238 9.375 3.3477 5.8008 3.3477 12.949 0 18.75-3.3516 5.8008-9.5391 9.375-16.238 9.375z"/>
  <path d="m751.45 627.19h-302.91c-6.6992 0-12.887-3.5742-16.238-9.375-3.3477-5.8008-3.3477-12.949 0-18.75 3.3516-5.8008 9.5391-9.375 16.238-9.375h302.91c6.6992 0 12.887 3.5742 16.238 9.375 3.3477 5.8008 3.3477 12.949 0 18.75-3.3516 5.8008-9.5391 9.375-16.238 9.375z"/>
 </g>
</svg>
