<?xml version="1.0" encoding="UTF-8"?>
<svg width="1200pt" height="1200pt" version="1.1" viewBox="0 0 1200 1200" xmlns="http://www.w3.org/2000/svg">
 <path d="m430.5 807.34h38.113v46.062c-0.17188 6.6953-3.8398 12.805-9.668 16.102-5.8242 3.2969-12.953 3.2969-18.777 0-5.8281-3.2969-9.4961-9.4062-9.668-16.102zm594.5 79.727c0.17188 6.6914 3.8398 12.805 9.668 16.102 5.8242 3.2969 12.953 3.2969 18.777 0 5.8281-3.2969 9.4961-9.4102 9.668-16.102v-79.727h-38.113zm-145.35-31v-48.75h-38.125v48.75c-0.12891 5.1367 1.8203 10.113 5.4062 13.793 3.5898 3.6836 8.5117 5.7578 13.652 5.7578s10.062-2.0742 13.648-5.7578c3.5898-3.6797 5.5391-8.6562 5.4062-13.793zm47.699 4.3242-68.75 61.398 0.003906 0.003906c-4.0508 3.6133-6.3633 8.7852-6.3633 14.211v43.227c-16.215 6.0078-28.645 19.312-33.539 35.895-4.8945 16.586-1.6797 34.508 8.6719 48.355 10.352 13.852 26.633 22.008 43.922 22.008 17.293 0 33.57-8.1562 43.922-22.008 10.355-13.848 13.566-31.77 8.6719-48.355-4.8945-16.582-17.324-29.887-33.535-35.895v-34.688l68.75-61.398v-0.003906c4.0469-3.6133 6.3633-8.7852 6.3594-14.211v-61.59h-38.125zm-296.1 185.16v-70c0-5.0508-2.0117-9.8945-5.5859-13.465l-69.516-69.586v-85.164h-38.109v93.062c0.003907 5.0547 2.0078 9.8984 5.5742 13.477l69.551 69.539v62.137c-16.215 6.0078-28.645 19.312-33.539 35.895-4.8945 16.586-1.6797 34.508 8.6719 48.355 10.352 13.852 26.629 22.008 43.922 22.008s33.57-8.1562 43.922-22.008c10.352-13.848 13.566-31.77 8.6719-48.355-4.8945-16.582-17.324-29.887-33.539-35.895zm107.21-178.85c0.17187 6.6914 3.8438 12.805 9.668 16.102 5.8242 3.2969 12.953 3.2969 18.781 0 5.8242-3.2969 9.4922-9.4102 9.6641-16.102v-59.363h-38.086zm-98.289 21.574h0.003906c-0.13281 5.1406 1.8164 10.113 5.4062 13.797 3.5859 3.6797 8.5078 5.7539 13.648 5.7539s10.062-2.0742 13.652-5.7539c3.5859-3.6836 5.5352-8.6562 5.4062-13.797v-80.938h-38.09zm182.33-694.76c19.473-1.3242 38.188-8.0742 54.023-19.484 15.84-11.41 28.164-27.023 35.59-45.078l1.25-2.9258h122l1.25 2.9258c7.4219 18.055 19.754 33.672 35.594 45.082 15.836 11.41 34.555 18.156 54.031 19.48l4.3359 0.5-0.10156 4.3633c-2.0859 98.363-5.25 246.99-154.36 304.77l-1.7383 0.67578-1.7383-0.67578c-149.12-57.785-152.3-206.41-154.38-304.77l-0.10156-4.3633zm54.227 121.88c-0.003906 25.895 10.277 50.727 28.586 69.039 18.305 18.309 43.137 28.598 69.027 28.598 25.895 0.003906 50.727-10.281 69.035-28.586 18.312-18.309 28.598-43.141 28.602-69.035 0-25.891-10.285-50.723-28.594-69.031-18.309-18.309-43.141-28.598-69.031-28.598-25.883 0.03125-50.695 10.324-68.996 28.625-18.301 18.297-28.598 43.109-28.629 68.988zm239.29 252.11c-5.2773-2.2773-8.6719-7.5039-8.5977-13.25 0.48047-28.633-8.9531-56.551-26.703-79.023l-3.3125-4.1875-3.75 3.75c-26.965 25.82-59.191 45.508-94.473 57.711-3.1211 1.1172-6.5312 1.1172-9.6523 0-35.93-11.961-68.602-32.074-95.461-58.77-26.859-26.695-47.172-59.246-59.352-95.105-6.3633-17.988-11.281-36.453-14.711-55.227l-0.97656-5.1641-5 1.4258v0.003906c-34.379 9.7539-62.961 33.719-78.562 65.875-2.0039 4.0859-5.832 6.9805-10.312 7.7969-0.82422 0.14062-1.6602 0.21094-2.5 0.21484-3.6797 0.007813-7.2227-1.418-9.875-3.9766-26.078-25.031-59.449-41.117-95.277-45.926-35.828-4.8086-72.258 1.9102-104.02 19.18-31.758 17.27-57.195 44.195-72.637 76.883-15.438 32.688-20.074 69.441-13.238 104.94 1.4883 7.582-3.3633 14.965-10.914 16.602-34.836 7.6484-63.613 32.074-76.816 65.207-13.203 33.133-9.1094 70.656 10.918 100.17 20.031 29.508 53.395 47.164 89.062 47.125h653.9c33.227-0.0625 64.555-15.488 84.867-41.781s27.324-60.504 18.992-92.668c-8.3281-32.164-31.062-58.672-61.586-71.801zm-210.77-252.11c0-18.328 7.2812-35.906 20.242-48.867 12.961-12.965 30.539-20.246 48.871-20.246 18.328 0 35.906 7.2812 48.867 20.246 12.961 12.961 20.242 30.539 20.242 48.867 0 18.332-7.2812 35.91-20.242 48.871-12.961 12.961-30.539 20.242-48.867 20.242-18.324-0.019531-35.895-7.3086-48.848-20.266-12.957-12.957-20.246-30.523-20.266-48.848zm25.414 16.602 22.648 22.648c5.5664 5.5664 14.594 5.5664 20.16 0l44.59-44.637c5.5664-5.5625 5.5703-14.59 0.003907-20.156-5.5625-5.5664-14.586-5.5703-20.156-0.007812l-34.523 34.562-12.574-12.574c-5.5703-5.5625-14.594-5.5625-20.156 0.007812-5.5664 5.5664-5.5625 14.59 0.003907 20.156zm-590.59 224.32h-309.27c-6.6133-0.085938-11.953-5.4258-12.039-12.039v-161.41c0.085938-6.6133 5.4258-11.949 12.039-12.039h404.12l-7.2617 8.0234c-2.25 2.5-4.1992 4.7383-5.9492 6.8633h-0.003906c-14.883 17.969-26.492 38.414-34.301 60.402l-1.125 3.1992h-101.6c-7.7109 0.22656-13.84 6.543-13.84 14.258 0 7.7109 6.1289 14.027 13.84 14.254h94.301l-0.8125 5.5c-2.4492 16.52-2.8047 33.281-1.0508 49.887l0.38672 3.75-3.5391 1.25c-11.613 4.2148-22.598 10-32.648 17.188zm-130.06-92.738c0.003906-15.113-5.9961-29.605-16.684-40.293-10.684-10.688-25.176-16.691-40.289-16.695-15.109 0-29.605 6.0039-40.289 16.688-10.688 10.688-16.688 25.18-16.688 40.293 0 15.113 6.0039 29.605 16.691 40.289 10.688 10.684 25.184 16.684 40.297 16.684 15.102-0.019531 29.578-6.0273 40.254-16.707 10.68-10.68 16.688-25.156 16.707-40.258zm261.85-121.25 1.1367-0.6875c33.988-20.234 73.234-29.875 112.73-27.695 39.496 2.1797 77.445 16.082 109 39.934l4.0117 3.0391 2.8516-4.1367c1.25-1.8125 2.6133-3.75 4.3125-5.9258l0.97656-1.25v-83.426h-507.36v80.148zm320.43-80.148h-56.863v55l7.5-5c14.648-9.7695 30.883-16.93 47.973-21.164l4.0625-1.0117-0.44922-4.1758c-0.67578-6.1484-1.25-12.5-1.8008-19.199zm-621.29 80.148v-80.148h-67.688v80.148zm-17.914 92.789c-7.5469-0.003906-14.789 2.9922-20.129 8.3281-5.3398 5.3359-8.3438 12.574-8.3438 20.125-0.003906 7.5508 2.9922 14.789 8.332 20.129 5.3359 5.3398 12.574 8.3398 20.125 8.3438 7.5508 0 14.789-3 20.129-8.3359 5.3398-5.3398 8.3359-12.578 8.3359-20.129-0.007813-7.543-3.0078-14.773-8.3398-20.109-5.3359-5.3359-12.566-8.3398-20.109-8.3516zm0-265.74c7.5508 0 14.789-3 20.129-8.3398 5.3359-5.3359 8.3359-12.578 8.3359-20.125-0.003906-7.5508-3.0039-14.789-8.3438-20.129-5.3398-5.3359-12.578-8.332-20.129-8.332-7.5508 0.003906-14.789 3.0039-20.125 8.3438-5.3359 5.3398-8.332 12.582-8.3281 20.133 0.007813 7.543 3.0117 14.777 8.3477 20.109 5.3359 5.3359 12.57 8.332 20.113 8.3398zm-134.32 52.262v-161.43c0.085938-6.6094 5.4297-11.941 12.039-12.023h844.84c6.6094 0.082031 11.949 5.4141 12.039 12.023v53.027l-0.3125 0.8125c-13.051 35-40.449 52.012-83.75 52.012-3.8438-0.003906-7.5234 1.543-10.207 4.293-2.6836 2.75-4.1406 6.4648-4.043 10.309 0.10156 4.4766 0.19922 9.0586 0.30078 13.75 0.23828 11.477 0.48828 22.727 0.89844 34.25l0.1875 5h-759.95c-6.6094-0.089843-11.945-5.418-12.039-12.027zm680.29-110.14c0.22656 7.7109 6.543 13.84 14.254 13.84 7.7148 0 14.027-6.1289 14.258-13.84v-11.977c0.11328-3.8516-1.3398-7.5898-4.0234-10.355-2.6875-2.7656-6.3789-4.3281-10.234-4.3281s-7.5469 1.5625-10.234 4.3281c-2.6836 2.7656-4.1367 6.5039-4.0195 10.355zm0 70.824c0.22656 7.7109 6.543 13.84 14.254 13.84 7.7148 0 14.027-6.1289 14.258-13.84v-11.977 0.003906c-0.23047-7.7109-6.543-13.844-14.258-13.844-7.7109 0-14.027 6.1328-14.254 13.844zm-82.789-70.824c0 7.8711 6.3789 14.25 14.25 14.25s14.25-6.3789 14.25-14.25v-11.977c0-7.8672-6.3789-14.25-14.25-14.25s-14.25 6.3828-14.25 14.25zm0 70.824c0 7.8711 6.3789 14.25 14.25 14.25s14.25-6.3789 14.25-14.25v-11.977 0.003906c0-7.8711-6.3789-14.25-14.25-14.25s-14.25 6.3789-14.25 14.25zm-82.727-70.824c0.23047 7.7109 6.5469 13.84 14.258 13.84s14.027-6.1289 14.258-13.84v-11.977c0.11328-3.8516-1.3398-7.5898-4.0234-10.355-2.6875-2.7656-6.3789-4.3281-10.234-4.3281s-7.5469 1.5625-10.234 4.3281c-2.6836 2.7656-4.1367 6.5039-4.0234 10.355zm0 70.824c0.23047 7.7109 6.5469 13.84 14.258 13.84s14.027-6.1289 14.258-13.84v-11.977 0.003906c-0.23047-7.7109-6.5469-13.844-14.258-13.844s-14.027 6.1328-14.258 13.844zm-263.1-41.398c0.007813 7.8672 6.3828 14.242 14.25 14.25h187.29c7.8711 0 14.25-6.3789 14.25-14.25 0-7.8711-6.3789-14.25-14.25-14.25h-187.29c-7.8672 0.007813-14.242 6.3828-14.25 14.25zm-174.32 0c-0.003906 15.109 5.9961 29.605 16.68 40.293s25.176 16.691 40.285 16.695c15.113 0 29.605-6 40.293-16.684 10.684-10.684 16.691-25.176 16.691-40.289 0-15.109-6-29.605-16.688-40.289-10.684-10.688-25.176-16.691-40.289-16.691-15.102 0.019531-29.582 6.0234-40.266 16.703-10.68 10.68-16.688 25.156-16.707 40.262z"/>
</svg>
