<?xml version="1.0" encoding="UTF-8"?>
<svg width="1200pt" height="1200pt" version="1.1" viewBox="0 0 1200 1200" xmlns="http://www.w3.org/2000/svg">
 <path d="m600 107.52-432 123.48v9c0 339 115.32 593.4 363.12 800.76 19.922 16.68 44.398 25.078 68.879 25.078s48.961-8.3984 68.879-25.078c247.8-207.36 363.12-461.76 363.12-800.76v-9zm192 669.48h-384v-12c0-105.84 86.16-192 192-192s192 86.16 192 192zm-192-429c56.281 0 102 45.719 102 102s-45.719 102-102 102-102-45.719-102-102 45.719-102 102-102z"/>
</svg>
